HIERARCHY
ROOT Hips
{
	OFFSET	0.00	0.00	0.00
	CHANNELS 6 Xposition Yposition Zposition Zrotation Xrotation Yrotation
	JOINT LeftUpLeg
	{
		OFFSET	 0.126116	-0.014019	-0.065224
		CHANNELS 3 Zrotation Xrotation Yrotation
		JOINT LeftLeg
		{
			OFFSET	 0.000000	 0.000000	 0.569914
			CHANNELS 3 Zrotation Xrotation Yrotation
			JOINT LeftFoot
			{
				OFFSET	 0.000000	 0.000000	 0.544423
				CHANNELS 3 Zrotation Xrotation Yrotation
				JOINT LeftToeBase
				{
					OFFSET	 0.000000	 0.000000	 0.207117
					CHANNELS 3 Zrotation Xrotation Yrotation
					End Site
					{
						OFFSET	 0.000000	 0.000000	 0.207117
					}
				}
			}
		}
	}
	JOINT RightUpLeg
	{
		OFFSET	-0.124023	-0.008373	-0.065224
		CHANNELS 3 Zrotation Xrotation Yrotation
		JOINT RightLeg
		{
			OFFSET	 0.000000	 0.000000	 0.570047
			CHANNELS 3 Zrotation Xrotation Yrotation
			JOINT RightFoot
			{
				OFFSET	 0.000000	 0.000000	 0.544354
				CHANNELS 3 Zrotation Xrotation Yrotation
				JOINT RightToeBase
				{
					OFFSET	 0.000000	 0.000000	 0.207540
					CHANNELS 3 Zrotation Xrotation Yrotation
					End Site
					{
						OFFSET	 0.000000	 0.000000	 0.207540
					}
				}
			}
		}
	}
	JOINT Spine
	{
		OFFSET	 0.000184	-0.007763	 0.117403
		CHANNELS 3 Zrotation Xrotation Yrotation
		JOINT Spine1
		{
			OFFSET	 0.000000	 0.000000	 0.137269
			CHANNELS 3 Zrotation Xrotation Yrotation
			JOINT Spine2
			{
				OFFSET	 0.000000	 0.000000	 0.156879
				CHANNELS 3 Zrotation Xrotation Yrotation
				JOINT LeftShoulder
				{
					OFFSET	 0.080501	-0.002496	 0.160144
					CHANNELS 3 Zrotation Xrotation Yrotation
					JOINT LeftArm
					{
						OFFSET	 0.000000	 0.000000	 0.164363
						CHANNELS 3 Zrotation Xrotation Yrotation
						JOINT LeftForeArm
						{
							OFFSET	 0.000000	 0.000000	 0.364576
							CHANNELS 3 Zrotation Xrotation Yrotation
							JOINT LeftHand
							{
								OFFSET	 0.000000	 0.000000	 0.360812
								CHANNELS 3 Zrotation Xrotation Yrotation
								JOINT LeftHandIndex1
								{
									OFFSET	 0.000000	 0.000000	 0.086006
									CHANNELS 3 Zrotation Xrotation Yrotation
									JOINT LeftHandIndex2
									{
										OFFSET	 0.000000	 0.000000	 0.047236
										CHANNELS 3 Zrotation Xrotation Yrotation
										JOINT LeftHandIndex3
										{
											OFFSET	-0.004284	-0.000551	 0.038166
											CHANNELS 3 Zrotation Xrotation Yrotation
											End Site
											{
												OFFSET	-0.004284	-0.000551	 0.038166
											}
										}
									}
								}
							}
						}
					}
				}
				JOINT Neck
				{
					OFFSET	 0.000000	 0.000000	 0.176489
					CHANNELS 3 Zrotation Xrotation Yrotation
					JOINT Head
					{
						OFFSET	 0.000000	-0.001747	 0.077940
						CHANNELS 3 Zrotation Xrotation Yrotation
						End Site
						{
							OFFSET	 0.000000	-0.001747	 0.077940
						}
					}
				}
				JOINT RightShoulder
				{
					OFFSET	-0.080363	 0.000306	 0.159706
					CHANNELS 3 Zrotation Xrotation Yrotation
					JOINT RightArm
					{
						OFFSET	 0.000000	 0.000000	 0.164196
						CHANNELS 3 Zrotation Xrotation Yrotation
						JOINT RightForeArm
						{
							OFFSET	 0.000000	 0.000000	 0.365611
							CHANNELS 3 Zrotation Xrotation Yrotation
							JOINT RightHand
							{
								OFFSET	 0.000000	 0.000000	 0.360648
								CHANNELS 3 Zrotation Xrotation Yrotation
								JOINT RightHandIndex1
								{
									OFFSET	 0.000000	 0.000000	 0.069977
									CHANNELS 3 Zrotation Xrotation Yrotation
									JOINT RightHandIndex2
									{
										OFFSET	 0.000000	 0.000000	 0.052305
										CHANNELS 3 Zrotation Xrotation Yrotation
										JOINT RightHandIndex3
										{
											OFFSET	 0.009002	-0.000782	 0.042196
											CHANNELS 3 Zrotation Xrotation Yrotation
											End Site
											{
												OFFSET	 0.009002	-0.000782	 0.042196
											}
										}
									}
								}
							}
						}
					}
				}
			}
		}
	}
}
MOTION
Frames:    10
Frame Time: 0.03333334
-0.027904	 0.233754	 1.101705	 2.587388	 32.024550	-8.110743	 38.098850	-72.551560	-147.328000	 4.252814	-61.906690	 4.121240	 29.840630	 70.099440	-38.409710	-2.385832	 28.452790	-0.000001	 26.431120	-77.832750	-150.380900	-13.003150	-65.438710	-7.153689	-1.083673	 69.653400	 21.532710	 2.384659	 28.388700	-0.000001	 9.587930	 14.015590	 1.069492	-1.718440	 13.746900	 1.786322	-3.270664	 3.100038	 3.540060	-99.141010	 68.199050	 156.861000	 4.146982	-7.633279	-51.008350	 0.044701	-0.633958	-5.255762	-0.980700	-27.412460	-8.240745	-2.027600	 6.559038	 9.033609	-5.188889	 0.308190	 3.541030	-5.234859	 0.342567	 0.430617	 0.313025	 17.368510	-5.902950	-1.774359	-26.376250	-1.634077	 97.471280	 64.592130	-159.492800	-10.101930	 5.894464	 51.842450	-13.632940	-4.540193	 36.396890	-15.051150	-24.766400	 4.570658	 1.803333	 3.979147	-15.098590	 4.898592	 3.004813	-9.310344	 5.224449	 0.395017	 2.014677
-0.025831	 0.232498	 1.112382	 2.397647	 31.445840	-7.749334	 35.692490	-71.110440	-149.928400	 3.879354	-60.328790	 3.734334	 29.248990	 69.548320	-37.688110	-2.385832	 28.452790	-0.000001	 21.049490	-76.477130	-155.461700	-12.636440	-63.780280	-6.726931	-0.926752	 69.076620	 21.348710	 2.384659	 28.388700	-0.000001	 6.479310	 13.711350	 1.025967	-1.706088	 13.330500	 1.854909	-2.849523	 2.857873	 3.206350	-98.999300	 68.248070	 157.222400	 4.618603	-6.355371	-51.139700	 1.711093	-0.928454	-6.098835	-1.523514	-24.962180	-9.572164	-2.027600	 6.559038	 9.033609	-5.188889	 0.308190	 3.541030	-5.234859	 0.342567	 0.430617	 0.011742	 15.548300	-5.157075	-1.529114	-24.580750	-1.778779	 97.373240	 64.502140	-159.833400	-10.838740	 6.148288	 50.688210	-14.349600	-5.626591	 38.969930	-14.495800	-22.450080	 6.316787	 1.803333	 3.979147	-15.098590	 4.898592	 3.004813	-9.310344	 5.224449	 0.395017	 2.014677
-0.023573	 0.230817	 1.124483	 2.277951	 30.803850	-7.384007	 33.243590	-69.453510	-152.517100	 3.596666	-58.486170	 3.422846	 28.364730	 68.845950	-36.732930	-2.385832	 28.452790	-0.000001	 15.996070	-74.849220	-160.097500	-12.282850	-61.898010	-6.302466	-0.735312	 68.393720	 21.099900	 2.384659	 28.388700	-0.000001	 3.010824	 13.330200	 0.983294	-1.702228	 12.977890	 1.909712	-2.404067	 2.502916	 2.830157	-98.721280	 68.531650	 157.657300	 5.133956	-4.746046	-51.477040	 3.542324	-1.295559	-6.994605	-2.293698	-22.799830	-10.968230	-2.027600	 6.559038	 9.033609	-5.188889	 0.308190	 3.541030	-5.234859	 0.342567	 0.430617	-0.282251	 13.121950	-4.562603	-1.180905	-22.188600	-1.782650	 97.229320	 64.271220	-160.415400	-11.723100	 6.189716	 49.600560	-15.039400	-6.925325	 41.836170	-14.028120	-20.150870	 8.117742	 1.803333	 3.979147	-15.098590	 4.898592	 3.004813	-9.310344	 5.224449	 0.395017	 2.014677
-0.021533	 0.229042	 1.135607	 2.172528	 30.218380	-7.054196	 31.298110	-67.883110	-154.597600	 3.364201	-56.757290	 3.163430	 27.547060	 68.202870	-35.827140	-2.385832	 28.452790	-0.000001	 12.173130	-73.261550	-163.536200	-11.995570	-60.132570	-5.946581	-0.585740	 67.750980	 20.905180	 2.384659	 28.388700	-0.000001	-0.176919	 12.970360	 0.943631	-1.700121	 12.595060	 1.982442	-1.998800	 2.206285	 2.482192	-98.468300	 68.792950	 158.057200	 5.592803	-3.260452	-51.777540	 5.186094	-1.666787	-7.776466	-3.149659	-21.259050	-12.091640	-2.027600	 6.559038	 9.033609	-5.188889	 0.308190	 3.541030	-5.234859	 0.342567	 0.430617	-0.527289	 10.895690	-4.034769	-0.855610	-20.002130	-1.807391	 97.093990	 64.059970	-160.945100	-12.530950	 6.231583	 48.605570	-15.539370	-8.164816	 44.445130	-13.492000	-18.449110	 9.576717	 1.803333	 3.979147	-15.098590	 4.898592	 3.004813	-9.310344	 5.224449	 0.395017	 2.014677
-0.019680	 0.227220	 1.146455	 2.028203	 29.559490	-6.691904	 29.573400	-66.247280	-156.529600	 3.165360	-55.076160	 2.938108	 26.738250	 67.620440	-34.928980	-2.385832	 28.452790	-0.000001	 8.807065	-71.573450	-166.535100	-11.790010	-58.384750	-5.664683	-0.448761	 67.146760	 20.702400	 2.384659	 28.388700	-0.000001	-3.409064	 12.593550	 0.922267	-1.742821	 12.380640	 2.083529	-1.584410	 1.719868	 2.113029	-98.060490	 69.352950	 158.496600	 6.123630	-1.528950	-52.190960	 6.805365	-2.069717	-8.528908	-4.203947	-20.224880	-13.268480	-2.027600	 6.559038	 9.033609	-5.188889	 0.308190	 3.541030	-5.234859	 0.342567	 0.430617	-0.735346	 8.174814	-3.446004	-0.577994	-17.374540	-1.963008	 96.928150	 64.114960	-161.325600	-13.329880	 6.751133	 47.675900	-16.156850	-9.602683	 46.891480	-12.884470	-17.058770	 10.724390	 1.803333	 3.979147	-15.098590	 4.898592	 3.004813	-9.310344	 5.224449	 0.395017	 2.014677
-0.017851	 0.225140	 1.157968	 1.849036	 28.762710	-6.298469	 27.710590	-64.354800	-158.613300	 2.968486	-53.202030	 2.711701	 25.719710	 67.102740	-33.737160	-2.385833	 28.452760	 0.000004	 5.737533	-69.565400	-169.233500	-11.610430	-56.444680	-5.393901	-0.325018	 66.589440	 20.433050	 2.384659	 28.388700	-0.000001	-7.087930	 12.169610	 0.930932	-1.789902	 12.159190	 2.239375	-1.114826	 1.118136	 1.677523	-97.547530	 70.084180	 159.012300	 6.736830	 0.536332	-52.777760	 8.635746	-2.564352	-9.348058	-5.664968	-19.637730	-14.523510	-2.027600	 6.559038	 9.033609	-5.188889	 0.308190	 3.541030	-5.234859	 0.342567	 0.430617	-0.933499	 4.901888	-2.763235	-0.259732	-14.233530	-2.200247	 96.730100	 64.252960	-161.723600	-14.212920	 7.470866	 46.704670	-16.786800	-11.330800	 49.554890	-12.002530	-15.992550	 11.808100	 1.803333	 3.979147	-15.098590	 4.898592	 3.004813	-9.310344	 5.224449	 0.395017	 2.014677
-0.016417	 0.223283	 1.167800	 1.687126	 28.036130	-5.956597	 26.180560	-62.656410	-160.336000	 2.867866	-51.533190	 2.572678	 24.730110	 66.707440	-32.599740	-2.385833	 28.452760	 0.000004	 3.471223	-67.736310	-171.196300	-11.516630	-54.715150	-5.207207	-0.231641	 66.158490	 20.197830	 2.384659	 28.388700	-0.000001	-10.257040	 11.795150	 0.962989	-1.803655	 12.011620	 2.344685	-0.700546	 0.537247	 1.330882	-96.921620	 71.074640	 159.452600	 7.295703	 2.622288	-53.587110	 10.218040	-3.023156	-10.031870	-7.233970	-19.652030	-15.497440	-2.027600	 6.559038	 9.033609	-5.188889	 0.308190	 3.541030	-5.234859	 0.342567	 0.430617	-1.077037	 1.895613	-2.384669	 0.081461	-11.351900	-2.268184	 96.431270	 64.713220	-162.124900	-14.949160	 8.449487	 46.141600	-17.270340	-12.917580	 51.809460	-10.948220	-15.751160	 12.524290	 1.803333	 3.979147	-15.098590	 4.898592	 3.004813	-9.310344	 5.224449	 0.395017	 2.014677
-0.015160	 0.221411	 1.177230	 1.531589	 27.295560	-5.608923	 24.824730	-60.966830	-161.907700	 2.840136	-49.907940	 2.492510	 23.729250	 66.335530	-31.492440	-2.385833	 28.452760	 0.000004	 1.477943	-65.898570	-172.894900	-11.485930	-53.012960	-5.071423	-0.157954	 65.755840	 20.015940	 2.384659	 28.388700	-0.000001	-13.279360	 11.437420	 1.004244	-1.796126	 11.962520	 2.399232	-0.295227	-0.106696	 1.038413	-96.095980	 72.426160	 159.844800	 7.864830	 4.948361	-54.685520	 11.742030	-3.488465	-10.664960	-9.057871	-20.157780	-16.368580	-2.027600	 6.559038	 9.033609	-5.188889	 0.308190	 3.541030	-5.234859	 0.342567	 0.430617	-1.206216	-1.177998	-2.256426	 0.463636	-8.403870	-2.184489	 96.002240	 65.537530	-162.572500	-15.642860	 9.784728	 45.956130	-17.702770	-14.521000	 53.884620	-9.641914	-16.205110	 13.033010	 1.803333	 3.979147	-15.098590	 4.898592	 3.004813	-9.310344	 5.224449	 0.395017	 2.014677
-0.014051	 0.219351	 1.186288	 1.394174	 26.548030	-5.276426	 23.617500	-59.266010	-163.332200	 2.820945	-48.313030	 2.418861	 22.728140	 65.975820	-30.371400	-2.385833	 28.452760	 0.000004	-0.240139	-64.043640	-174.316400	-11.468870	-51.344590	-4.945239	-0.115656	 65.362990	 19.890500	 2.384659	 28.388700	-0.000001	-16.180790	 11.094430	 1.047635	-1.781924	 11.892780	 2.460200	 0.091379	-0.734766	 0.756650	-95.239480	 73.775760	 160.196100	 8.426726	 7.265193	-55.819490	 13.201960	-3.960264	-11.254720	-11.101520	-21.112880	-17.227600	-2.027600	 6.559038	 9.033609	-5.188889	 0.308190	 3.541030	-5.234859	 0.342567	 0.430617	-1.328212	-4.231726	-2.138645	 0.832659	-5.478989	-2.136544	 95.577130	 66.359920	-163.017100	-16.329040	 11.100500	 45.854130	-18.029220	-16.100690	 55.861270	-8.153979	-17.130680	 13.491270	 1.803333	 3.979147	-15.098590	 4.898592	 3.004813	-9.310344	 5.224449	 0.395017	 2.014677
-0.013057	 0.217095	 1.194769	 1.327992	 25.720600	-4.929228	 22.414950	-57.540080	-164.737800	 2.883281	-46.820370	 2.407516	 21.713680	 65.620060	-29.277030	-2.385833	 28.452750	 0.000004	-1.797964	-62.115520	-175.557600	-10.990350	-49.806720	-4.470577	-0.330967	 65.130100	 19.690460	 2.384659	 28.388700	-0.000001	-19.010960	 10.760100	 1.074390	-1.798157	 12.030330	 2.433626	 0.469779	-1.531957	 0.553766	-94.340180	 75.109630	 160.578400	 9.200374	 9.307763	-57.060710	 14.644660	-4.437717	-11.807580	-13.160240	-22.431510	-18.138150	-2.027600	 6.559038	 9.033609	-5.188889	 0.308190	 3.541030	-5.234859	 0.342567	 0.430617	-1.450221	-7.653055	-2.310390	 1.208261	-2.246694	-1.972440	 95.125150	 67.257550	-163.473600	-17.130280	 12.385450	 46.022220	-18.275820	-17.602350	 57.616490	-6.461104	-18.466960	 13.790320	 1.803333	 3.979147	-15.098590	 4.898592	 3.004813	-9.310344	 5.224449	 0.395017	 2.014677
